name rise44.9368peak50.754fall52.0217.mot
datacolumns 19
datarows 20
range 22.77825400000000 22.80991700000000
endheader
time	ground_force1_vx	ground_force1_vy	ground_force1_vz	ground_force1_px	ground_force1_py	ground_force1_pz	ground_force2_vx	ground_force2_vy	ground_force2_vz	ground_force2_px	ground_force2_py	ground_force2_pz	ground_torque1_x	ground_torque1_y	ground_torque1_z	ground_torque2_x	ground_torque2_y	ground_torque2_z	
22.77825400000000	-10.40854000000000	41.25038200000000	-11.13603200000000	0.36719900000000	0.00000000000000	0.09861000000000	-62.59238300000000	771.80346399999996	-55.74980900000000	0.17732600000000	0.00000000000000	-0.10986000000000	0.00000000000000	-8.27944700000000	0.00000000000000	0.00000000000000	-31.52641700000000	0.00000000000000	
22.77991500000000	-11.37208500000000	48.64992600000000	-12.47013200000000	0.37013200000000	0.00000000000000	0.10005000000000	-63.46000700000000	768.30381499999999	-55.26241500000000	0.17612000000000	0.00000000000000	-0.10972400000000	0.00000000000000	-9.33986700000000	0.00000000000000	0.00000000000000	-31.46186400000000	0.00000000000000	
22.78158500000000	-12.12871000000000	56.22521100000000	-13.66308500000000	0.37289000000000	0.00000000000000	0.10132500000000	-64.33321500000000	764.68502100000001	-54.75872300000000	0.17489800000000	0.00000000000000	-0.10958700000000	0.00000000000000	-10.31377100000000	0.00000000000000	0.00000000000000	-31.39564600000000	0.00000000000000	
22.78324900000000	-12.65068300000000	63.88642500000000	-14.68515700000000	0.37550300000000	0.00000000000000	0.10246300000000	-65.21057999999999	760.94482300000004	-54.23871700000000	0.17365900000000	0.00000000000000	-0.10944800000000	0.00000000000000	-11.17885400000000	0.00000000000000	0.00000000000000	-31.32750800000000	0.00000000000000	
22.78492400000000	-12.92221400000000	71.56416200000000	-15.51694000000000	0.37799600000000	0.00000000000000	0.10348600000000	-66.09058200000000	757.08090700000002	-53.70239400000000	0.17240700000000	0.00000000000000	-0.10930700000000	0.00000000000000	-11.91998900000000	0.00000000000000	0.00000000000000	-31.25717600000000	0.00000000000000	
22.78658600000000	-12.93921300000000	79.21182300000000	-16.14943500000000	0.38038700000000	0.00000000000000	0.10441100000000	-66.97160800000000	753.09091300000000	-53.14976200000000	0.17114000000000	0.00000000000000	-0.10916500000000	0.00000000000000	-12.52940000000000	0.00000000000000	0.00000000000000	-31.18436200000000	0.00000000000000	
22.78824900000000	-12.70813100000000	86.80574400000000	-16.58327300000000	0.38268900000000	0.00000000000000	0.10525400000000	-67.85195600000000	748.97244599999999	-52.58084700000000	0.16986100000000	0.00000000000000	-0.10902000000000	0.00000000000000	-13.00620100000000	0.00000000000000	0.00000000000000	-31.10876200000000	0.00000000000000	
22.78991900000000	-12.24413600000000	94.34339199999999	-16.82728000000000	0.38491600000000	0.00000000000000	0.10602400000000	-68.72983800000000	744.72307899999998	-51.99569100000000	0.16857000000000	0.00000000000000	-0.10887300000000	0.00000000000000	-13.35545900000000	0.00000000000000	0.00000000000000	-31.03005500000000	0.00000000000000	
22.79158300000000	-11.56888400000000	101.84013500000000	-16.89661500000000	0.38707500000000	0.00000000000000	0.10673200000000	-69.60338200000000	740.34037300000000	-51.39435300000000	0.16726800000000	0.00000000000000	-0.10872500000000	0.00000000000000	-13.58692100000000	0.00000000000000	0.00000000000000	-30.94791100000000	0.00000000000000	
22.79325000000000	-10.70814300000000	109.32508900000001	-16.81072700000000	0.38917400000000	0.00000000000000	0.10738500000000	-70.47064000000000	735.82187999999996	-50.77691200000000	0.16595700000000	0.00000000000000	-0.10857400000000	0.00000000000000	-13.71358200000000	0.00000000000000	0.00000000000000	-30.86198500000000	0.00000000000000	
22.79491700000000	-9.68949500000000	116.83656000000001	-16.59129900000000	0.39121900000000	0.00000000000000	0.10798900000000	-71.32958499999999	731.16516300000001	-50.14347000000000	0.16463800000000	0.00000000000000	-0.10842200000000	0.00000000000000	-13.75022500000000	0.00000000000000	0.00000000000000	-30.77192100000000	0.00000000000000	
22.79658300000000	-8.54027800000000	124.41750300000000	-16.26038300000000	0.39321600000000	0.00000000000000	0.10855100000000	-72.17812100000000	726.36780299999998	-49.49414900000000	0.16331300000000	0.00000000000000	-0.10826800000000	0.00000000000000	-13.71207700000000	0.00000000000000	0.00000000000000	-30.67735300000000	0.00000000000000	
22.79825300000000	-7.28590000000000	132.11137600000001	-15.83882000000000	0.39516700000000	0.00000000000000	0.10907400000000	-73.01408800000000	721.42741999999998	-48.82909700000000	0.16198100000000	0.00000000000000	-0.10811100000000	0.00000000000000	-13.61364100000000	0.00000000000000	0.00000000000000	-30.57790800000000	0.00000000000000	
22.79991500000000	-5.94859100000000	139.95863199999999	-15.34502700000000	0.39707800000000	0.00000000000000	0.10956200000000	-73.83526500000001	716.34168399999999	-48.14848700000000	0.16064600000000	0.00000000000000	-0.10795200000000	0.00000000000000	-13.46779500000000	0.00000000000000	0.00000000000000	-30.47320600000000	0.00000000000000	
22.80158900000000	-4.54660800000000	147.99402400000000	-14.79418000000000	0.39894900000000	0.00000000000000	0.11001900000000	-74.63937600000000	711.10833400000001	-47.45251800000000	0.15930800000000	0.00000000000000	-0.10779100000000	0.00000000000000	-13.28516300000000	0.00000000000000	0.00000000000000	-30.36285700000000	0.00000000000000	
22.80324800000000	-3.09388400000000	156.24476100000001	-14.19779000000000	0.40078400000000	0.00000000000000	0.11044800000000	-75.42409800000000	705.72519599999998	-46.74141700000000	0.15796800000000	0.00000000000000	-0.10762800000000	0.00000000000000	-13.07376200000000	0.00000000000000	0.00000000000000	-30.24647300000000	0.00000000000000	
22.80491700000000	-1.60005800000000	164.72952799999999	-13.56362700000000	0.40258400000000	0.00000000000000	0.11085200000000	-76.18706400000001	700.19019700000001	-46.01544200000000	0.15662800000000	0.00000000000000	-0.10746300000000	0.00000000000000	-12.83891400000000	0.00000000000000	0.00000000000000	-30.12365600000000	0.00000000000000	
22.80659600000000	-0.07081700000000	173.45826600000001	-12.89594300000000	0.40435000000000	0.00000000000000	0.11123100000000	-76.92587399999999	694.50138900000002	-45.27487700000000	0.15529100000000	0.00000000000000	-0.10729600000000	0.00000000000000	-12.58336900000000	0.00000000000000	0.00000000000000	-29.99401300000000	0.00000000000000	
22.80824900000000	1.49152400000000	182.43260500000000	-12.19591300000000	0.40608400000000	0.00000000000000	0.11158900000000	-77.63809700000000	688.65696100000002	-44.52004200000000	0.15395600000000	0.00000000000000	-0.10712600000000	0.00000000000000	-12.30760400000000	0.00000000000000	0.00000000000000	-29.85714400000000	0.00000000000000	
22.80991700000000	3.08730300000000	191.64678000000001	-11.46223400000000	0.40778700000000	0.00000000000000	0.11192600000000	-78.32128000000000	682.65526199999999	-43.75128300000000	0.15262600000000	0.00000000000000	-0.10695300000000	0.00000000000000	-12.01023700000000	0.00000000000000	0.00000000000000	-29.71265500000000	0.00000000000000	
